<svg width="760" height="635" viewBox="0 0 760 635" version="1.1" xmlns="http://www.w3.org/2000/svg" xmlns:xlink="http://www.w3.org/1999/xlink">
<title>Cornerstone Color Pallet</title>
<desc>Created using Figma</desc>
<g id="Canvas" transform="translate(414 340)">
<rect x="-414" y="-340" width="760" height="635" fill="#FFFFFF"/>
<g id="Cornerstone Color Pallet">
<g id="Lead with Cornerstone">
<g id="Saffron">
<use xlink:href="#path0_fill" transform="translate(-256 167)" fill="#ECC534"/>
</g>
<g id="Lucky Point">
<use xlink:href="#path0_fill" transform="translate(-414 167)" fill="#2C304D"/>
</g>
<g id="Lead with Cornerstone">
<use xlink:href="#path1_fill" transform="translate(-414 117)"/>
</g>
</g>
<g id="RD1 - Green / Yellow / Red">
<g id="Ruddy">
<use xlink:href="#path0_fill" transform="translate(-98 -67)" fill="#FF101F"/>
</g>
<g id="Saffron">
<use xlink:href="#path0_fill" transform="translate(-256 -67)" fill="#ECC534"/>
</g>
<g id="Kelly Green">
<use xlink:href="#path0_fill" transform="translate(-414 -67)" fill="#29BF12"/>
</g>
<g id="Green / Yellow / Red">
<use xlink:href="#path2_fill" transform="translate(-414 -113)"/>
</g>
</g>
<g id="Ready Day One">
<g id="Possible New Default Blue">
<use xlink:href="#path0_fill" transform="translate(218 -300)" fill="#2589BD"/>
</g>
<g id="Astronaut">
<use xlink:href="#path0_fill" transform="translate(60 -300)" fill="#465177"/>
</g>
<g id="Submarine">
<use xlink:href="#path0_fill" transform="translate(-98 -300)" fill="#BDC3C7"/>
</g>
<g id="Outrageous Orange">
<use xlink:href="#path0_fill" transform="translate(-256 -300)" fill="#FA6630"/>
</g>
<g id="Midnight">
<use xlink:href="#path0_fill" transform="translate(-414 -300)" fill="#0D1634"/>
</g>
<g id="Ready Day One">
<use xlink:href="#path3_fill" transform="translate(-414 -344)"/>
</g>
</g>
</g>
</g>
<defs>
<path id="path0_fill" d="M 0 0L 128 0L 128 128L 0 128L 0 0Z"/>
<path id="path1_fill" d="M 4.24219 20.1602L 12.3281 20.1602L 12.3281 22L 1.98047 22L 1.98047 4.9375L 4.24219 4.9375L 4.24219 20.1602ZM 19.8164 22.2344C 18.0977 22.2344 16.6992 21.6719 15.6211 20.5469C 14.543 19.4141 14.0039 17.9023 14.0039 16.0117L 14.0039 15.6133C 14.0039 14.3555 14.2422 13.2344 14.7188 12.25C 15.2031 11.2578 15.875 10.4844 16.7344 9.92969C 17.6016 9.36719 18.5391 9.08594 19.5469 9.08594C 21.1953 9.08594 22.4766 9.62891 23.3906 10.7148C 24.3047 11.8008 24.7617 13.3555 24.7617 15.3789L 24.7617 16.2812L 16.1719 16.2812C 16.2031 17.5312 16.5664 18.543 17.2617 19.3164C 17.9648 20.082 18.8555 20.4648 19.9336 20.4648C 20.6992 20.4648 21.3477 20.3086 21.8789 19.9961C 22.4102 19.6836 22.875 19.2695 23.2734 18.7539L 24.5977 19.7852C 23.5352 21.418 21.9414 22.2344 19.8164 22.2344ZM 19.5469 10.8672C 18.6719 10.8672 17.9375 11.1875 17.3438 11.8281C 16.75 12.4609 16.3828 13.3516 16.2422 14.5L 22.5938 14.5L 22.5938 14.3359C 22.5312 13.2344 22.2344 12.3828 21.7031 11.7812C 21.1719 11.1719 20.4531 10.8672 19.5469 10.8672ZM 35.1094 22C 34.9844 21.75 34.8828 21.3047 34.8047 20.6641C 33.7969 21.7109 32.5938 22.2344 31.1953 22.2344C 29.9453 22.2344 28.918 21.8828 28.1133 21.1797C 27.3164 20.4688 26.918 19.5703 26.918 18.4844C 26.918 17.1641 27.418 16.1406 28.418 15.4141C 29.4258 14.6797 30.8398 14.3125 32.6602 14.3125L 34.7695 14.3125L 34.7695 13.3164C 34.7695 12.5586 34.543 11.957 34.0898 11.5117C 33.6367 11.0586 32.9688 10.832 32.0859 10.832C 31.3125 10.832 30.6641 11.0273 30.1406 11.418C 29.6172 11.8086 29.3555 12.2812 29.3555 12.8359L 27.1758 12.8359C 27.1758 12.2031 27.3984 11.5938 27.8438 11.0078C 28.2969 10.4141 28.9062 9.94531 29.6719 9.60156C 30.4453 9.25781 31.293 9.08594 32.2148 9.08594C 33.6758 9.08594 34.8203 9.45312 35.6484 10.1875C 36.4766 10.9141 36.9062 11.918 36.9375 13.1992L 36.9375 19.0352C 36.9375 20.1992 37.0859 21.125 37.3828 21.8125L 37.3828 22L 35.1094 22ZM 31.5117 20.3477C 32.1914 20.3477 32.8359 20.1719 33.4453 19.8203C 34.0547 19.4688 34.4961 19.0117 34.7695 18.4492L 34.7695 15.8477L 33.0703 15.8477C 30.4141 15.8477 29.0859 16.625 29.0859 18.1797C 29.0859 18.8594 29.3125 19.3906 29.7656 19.7734C 30.2188 20.1562 30.8008 20.3477 31.5117 20.3477ZM 39.8086 15.5547C 39.8086 13.6094 40.2695 12.0469 41.1914 10.8672C 42.1133 9.67969 43.3203 9.08594 44.8125 9.08594C 46.2969 9.08594 47.4727 9.59375 48.3398 10.6094L 48.3398 4L 50.5078 4L 50.5078 22L 48.5156 22L 48.4102 20.6406C 47.543 21.7031 46.3359 22.2344 44.7891 22.2344C 43.3203 22.2344 42.1211 21.6328 41.1914 20.4297C 40.2695 19.2266 39.8086 17.6562 39.8086 15.7188L 39.8086 15.5547ZM 41.9766 15.8008C 41.9766 17.2383 42.2734 18.3633 42.8672 19.1758C 43.4609 19.9883 44.2812 20.3945 45.3281 20.3945C 46.7031 20.3945 47.707 19.7773 48.3398 18.543L 48.3398 12.7188C 47.6914 11.5234 46.6953 10.9258 45.3516 10.9258C 44.2891 10.9258 43.4609 11.3359 42.8672 12.1562C 42.2734 12.9766 41.9766 14.1914 41.9766 15.8008ZM 71.0625 19.0117L 73.5 9.32031L 75.668 9.32031L 71.9766 22L 70.2188 22L 67.1367 12.3906L 64.1367 22L 62.3789 22L 58.6992 9.32031L 60.8555 9.32031L 63.3516 18.8125L 66.3047 9.32031L 68.0508 9.32031L 71.0625 19.0117ZM 80.2383 22L 78.0703 22L 78.0703 9.32031L 80.2383 9.32031L 80.2383 22ZM 77.8945 5.95703C 77.8945 5.60547 78 5.30859 78.2109 5.06641C 78.4297 4.82422 78.75 4.70312 79.1719 4.70312C 79.5938 4.70312 79.9141 4.82422 80.1328 5.06641C 80.3516 5.30859 80.4609 5.60547 80.4609 5.95703C 80.4609 6.30859 80.3516 6.60156 80.1328 6.83594C 79.9141 7.07031 79.5938 7.1875 79.1719 7.1875C 78.75 7.1875 78.4297 7.07031 78.2109 6.83594C 78 6.60156 77.8945 6.30859 77.8945 5.95703ZM 86.6602 6.25L 86.6602 9.32031L 89.0273 9.32031L 89.0273 10.9961L 86.6602 10.9961L 86.6602 18.8594C 86.6602 19.3672 86.7656 19.75 86.9766 20.0078C 87.1875 20.2578 87.5469 20.3828 88.0547 20.3828C 88.3047 20.3828 88.6484 20.3359 89.0859 20.2422L 89.0859 22C 88.5156 22.1562 87.9609 22.2344 87.4219 22.2344C 86.4531 22.2344 85.7227 21.9414 85.2305 21.3555C 84.7383 20.7695 84.4922 19.9375 84.4922 18.8594L 84.4922 10.9961L 82.1836 10.9961L 82.1836 9.32031L 84.4922 9.32031L 84.4922 6.25L 86.6602 6.25ZM 93.7383 10.8555C 94.6992 9.67578 95.9492 9.08594 97.4883 9.08594C 100.168 9.08594 101.52 10.5977 101.543 13.6211L 101.543 22L 99.375 22L 99.375 13.6094C 99.3672 12.6953 99.1562 12.0195 98.7422 11.582C 98.3359 11.1445 97.6992 10.9258 96.832 10.9258C 96.1289 10.9258 95.5117 11.1133 94.9805 11.4883C 94.4492 11.8633 94.0352 12.3555 93.7383 12.9648L 93.7383 22L 91.5703 22L 91.5703 4L 93.7383 4L 93.7383 10.8555ZM 123.633 16.5859C 123.422 18.3906 122.754 19.7852 121.629 20.7695C 120.512 21.7461 119.023 22.2344 117.164 22.2344C 115.148 22.2344 113.531 21.5117 112.312 20.0664C 111.102 18.6211 110.496 16.6875 110.496 14.2656L 110.496 12.625C 110.496 11.0391 110.777 9.64453 111.34 8.44141C 111.91 7.23828 112.715 6.31641 113.754 5.67578C 114.793 5.02734 115.996 4.70312 117.363 4.70312C 119.176 4.70312 120.629 5.21094 121.723 6.22656C 122.816 7.23438 123.453 8.63281 123.633 10.4219L 121.371 10.4219C 121.176 9.0625 120.75 8.07812 120.094 7.46875C 119.445 6.85938 118.535 6.55469 117.363 6.55469C 115.926 6.55469 114.797 7.08594 113.977 8.14844C 113.164 9.21094 112.758 10.7227 112.758 12.6836L 112.758 14.3359C 112.758 16.1875 113.145 17.6602 113.918 18.7539C 114.691 19.8477 115.773 20.3945 117.164 20.3945C 118.414 20.3945 119.371 20.1133 120.035 19.5508C 120.707 18.9805 121.152 17.9922 121.371 16.5859L 123.633 16.5859ZM 125.801 15.543C 125.801 14.3008 126.043 13.1836 126.527 12.1914C 127.02 11.1992 127.699 10.4336 128.566 9.89453C 129.441 9.35547 130.438 9.08594 131.555 9.08594C 133.281 9.08594 134.676 9.68359 135.738 10.8789C 136.809 12.0742 137.344 13.6641 137.344 15.6484L 137.344 15.8008C 137.344 17.0352 137.105 18.1445 136.629 19.1289C 136.16 20.1055 135.484 20.8672 134.602 21.4141C 133.727 21.9609 132.719 22.2344 131.578 22.2344C 129.859 22.2344 128.465 21.6367 127.395 20.4414C 126.332 19.2461 125.801 17.6641 125.801 15.6953L 125.801 15.543ZM 127.98 15.8008C 127.98 17.207 128.305 18.3359 128.953 19.1875C 129.609 20.0391 130.484 20.4648 131.578 20.4648C 132.68 20.4648 133.555 20.0352 134.203 19.1758C 134.852 18.3086 135.176 17.0977 135.176 15.543C 135.176 14.1523 134.844 13.0273 134.18 12.168C 133.523 11.3008 132.648 10.8672 131.555 10.8672C 130.484 10.8672 129.621 11.293 128.965 12.1445C 128.309 12.9961 127.98 14.2148 127.98 15.8008ZM 146.191 11.2656C 145.863 11.2109 145.508 11.1836 145.125 11.1836C 143.703 11.1836 142.738 11.7891 142.23 13L 142.23 22L 140.062 22L 140.062 9.32031L 142.172 9.32031L 142.207 10.7852C 142.918 9.65234 143.926 9.08594 145.23 9.08594C 145.652 9.08594 145.973 9.14062 146.191 9.25L 146.191 11.2656ZM 150.246 9.32031L 150.316 10.9141C 151.285 9.69531 152.551 9.08594 154.113 9.08594C 156.793 9.08594 158.145 10.5977 158.168 13.6211L 158.168 22L 156 22L 156 13.6094C 155.992 12.6953 155.781 12.0195 155.367 11.582C 154.961 11.1445 154.324 10.9258 153.457 10.9258C 152.754 10.9258 152.137 11.1133 151.605 11.4883C 151.074 11.8633 150.66 12.3555 150.363 12.9648L 150.363 22L 148.195 22L 148.195 9.32031L 150.246 9.32031ZM 166.699 22.2344C 164.98 22.2344 163.582 21.6719 162.504 20.5469C 161.426 19.4141 160.887 17.9023 160.887 16.0117L 160.887 15.6133C 160.887 14.3555 161.125 13.2344 161.602 12.25C 162.086 11.2578 162.758 10.4844 163.617 9.92969C 164.484 9.36719 165.422 9.08594 166.43 9.08594C 168.078 9.08594 169.359 9.62891 170.273 10.7148C 171.188 11.8008 171.645 13.3555 171.645 15.3789L 171.645 16.2812L 163.055 16.2812C 163.086 17.5312 163.449 18.543 164.145 19.3164C 164.848 20.082 165.738 20.4648 166.816 20.4648C 167.582 20.4648 168.23 20.3086 168.762 19.9961C 169.293 19.6836 169.758 19.2695 170.156 18.7539L 171.48 19.7852C 170.418 21.418 168.824 22.2344 166.699 22.2344ZM 166.43 10.8672C 165.555 10.8672 164.82 11.1875 164.227 11.8281C 163.633 12.4609 163.266 13.3516 163.125 14.5L 169.477 14.5L 169.477 14.3359C 169.414 13.2344 169.117 12.3828 168.586 11.7812C 168.055 11.1719 167.336 10.8672 166.43 10.8672ZM 180.293 11.2656C 179.965 11.2109 179.609 11.1836 179.227 11.1836C 177.805 11.1836 176.84 11.7891 176.332 13L 176.332 22L 174.164 22L 174.164 9.32031L 176.273 9.32031L 176.309 10.7852C 177.02 9.65234 178.027 9.08594 179.332 9.08594C 179.754 9.08594 180.074 9.14062 180.293 9.25L 180.293 11.2656ZM 189.68 18.6367C 189.68 18.0508 189.457 17.5977 189.012 17.2773C 188.574 16.9492 187.805 16.668 186.703 16.4336C 185.609 16.1992 184.738 15.918 184.09 15.5898C 183.449 15.2617 182.973 14.8711 182.66 14.418C 182.355 13.9648 182.203 13.4258 182.203 12.8008C 182.203 11.7617 182.641 10.8828 183.516 10.1641C 184.398 9.44531 185.523 9.08594 186.891 9.08594C 188.328 9.08594 189.492 9.45703 190.383 10.1992C 191.281 10.9414 191.73 11.8906 191.73 13.0469L 189.551 13.0469C 189.551 12.4531 189.297 11.9414 188.789 11.5117C 188.289 11.082 187.656 10.8672 186.891 10.8672C 186.102 10.8672 185.484 11.0391 185.039 11.3828C 184.594 11.7266 184.371 12.1758 184.371 12.7305C 184.371 13.2539 184.578 13.6484 184.992 13.9141C 185.406 14.1797 186.152 14.4336 187.23 14.6758C 188.316 14.918 189.195 15.207 189.867 15.543C 190.539 15.8789 191.035 16.2852 191.355 16.7617C 191.684 17.2305 191.848 17.8047 191.848 18.4844C 191.848 19.6172 191.395 20.5273 190.488 21.2148C 189.582 21.8945 188.406 22.2344 186.961 22.2344C 185.945 22.2344 185.047 22.0547 184.266 21.6953C 183.484 21.3359 182.871 20.8359 182.426 20.1953C 181.988 19.5469 181.77 18.8477 181.77 18.0977L 183.938 18.0977C 183.977 18.8242 184.266 19.4023 184.805 19.832C 185.352 20.2539 186.07 20.4648 186.961 20.4648C 187.781 20.4648 188.438 20.3008 188.93 19.9727C 189.43 19.6367 189.68 19.1914 189.68 18.6367ZM 197.613 6.25L 197.613 9.32031L 199.98 9.32031L 199.98 10.9961L 197.613 10.9961L 197.613 18.8594C 197.613 19.3672 197.719 19.75 197.93 20.0078C 198.141 20.2578 198.5 20.3828 199.008 20.3828C 199.258 20.3828 199.602 20.3359 200.039 20.2422L 200.039 22C 199.469 22.1562 198.914 22.2344 198.375 22.2344C 197.406 22.2344 196.676 21.9414 196.184 21.3555C 195.691 20.7695 195.445 19.9375 195.445 18.8594L 195.445 10.9961L 193.137 10.9961L 193.137 9.32031L 195.445 9.32031L 195.445 6.25L 197.613 6.25ZM 201.715 15.543C 201.715 14.3008 201.957 13.1836 202.441 12.1914C 202.934 11.1992 203.613 10.4336 204.48 9.89453C 205.355 9.35547 206.352 9.08594 207.469 9.08594C 209.195 9.08594 210.59 9.68359 211.652 10.8789C 212.723 12.0742 213.258 13.6641 213.258 15.6484L 213.258 15.8008C 213.258 17.0352 213.02 18.1445 212.543 19.1289C 212.074 20.1055 211.398 20.8672 210.516 21.4141C 209.641 21.9609 208.633 22.2344 207.492 22.2344C 205.773 22.2344 204.379 21.6367 203.309 20.4414C 202.246 19.2461 201.715 17.6641 201.715 15.6953L 201.715 15.543ZM 203.895 15.8008C 203.895 17.207 204.219 18.3359 204.867 19.1875C 205.523 20.0391 206.398 20.4648 207.492 20.4648C 208.594 20.4648 209.469 20.0352 210.117 19.1758C 210.766 18.3086 211.09 17.0977 211.09 15.543C 211.09 14.1523 210.758 13.0273 210.094 12.168C 209.438 11.3008 208.562 10.8672 207.469 10.8672C 206.398 10.8672 205.535 11.293 204.879 12.1445C 204.223 12.9961 203.895 14.2148 203.895 15.8008ZM 218.027 9.32031L 218.098 10.9141C 219.066 9.69531 220.332 9.08594 221.895 9.08594C 224.574 9.08594 225.926 10.5977 225.949 13.6211L 225.949 22L 223.781 22L 223.781 13.6094C 223.773 12.6953 223.562 12.0195 223.148 11.582C 222.742 11.1445 222.105 10.9258 221.238 10.9258C 220.535 10.9258 219.918 11.1133 219.387 11.4883C 218.855 11.8633 218.441 12.3555 218.145 12.9648L 218.145 22L 215.977 22L 215.977 9.32031L 218.027 9.32031ZM 234.48 22.2344C 232.762 22.2344 231.363 21.6719 230.285 20.5469C 229.207 19.4141 228.668 17.9023 228.668 16.0117L 228.668 15.6133C 228.668 14.3555 228.906 13.2344 229.383 12.25C 229.867 11.2578 230.539 10.4844 231.398 9.92969C 232.266 9.36719 233.203 9.08594 234.211 9.08594C 235.859 9.08594 237.141 9.62891 238.055 10.7148C 238.969 11.8008 239.426 13.3555 239.426 15.3789L 239.426 16.2812L 230.836 16.2812C 230.867 17.5312 231.23 18.543 231.926 19.3164C 232.629 20.082 233.52 20.4648 234.598 20.4648C 235.363 20.4648 236.012 20.3086 236.543 19.9961C 237.074 19.6836 237.539 19.2695 237.938 18.7539L 239.262 19.7852C 238.199 21.418 236.605 22.2344 234.48 22.2344ZM 234.211 10.8672C 233.336 10.8672 232.602 11.1875 232.008 11.8281C 231.414 12.4609 231.047 13.3516 230.906 14.5L 237.258 14.5L 237.258 14.3359C 237.195 13.2344 236.898 12.3828 236.367 11.7812C 235.836 11.1719 235.117 10.8672 234.211 10.8672Z"/>
<path id="path2_fill" d="M 14.5781 19.7617C 14 20.5898 13.1914 21.2109 12.1523 21.625C 11.1211 22.0312 9.91797 22.2344 8.54297 22.2344C 7.15234 22.2344 5.91797 21.9102 4.83984 21.2617C 3.76172 20.6055 2.92578 19.6758 2.33203 18.4727C 1.74609 17.2695 1.44531 15.875 1.42969 14.2891L 1.42969 12.8008C 1.42969 10.2305 2.02734 8.23828 3.22266 6.82422C 4.42578 5.41016 6.11328 4.70312 8.28516 4.70312C 10.0664 4.70312 11.5 5.16016 12.5859 6.07422C 13.6719 6.98047 14.3359 8.26953 14.5781 9.94141L 12.3281 9.94141C 11.9062 7.68359 10.5625 6.55469 8.29688 6.55469C 6.78906 6.55469 5.64453 7.08594 4.86328 8.14844C 4.08984 9.20312 3.69922 10.7344 3.69141 12.7422L 3.69141 14.1367C 3.69141 16.0508 4.12891 17.5742 5.00391 18.707C 5.87891 19.832 7.0625 20.3945 8.55469 20.3945C 9.39844 20.3945 10.1367 20.3008 10.7695 20.1133C 11.4023 19.9258 11.9258 19.6094 12.3398 19.1641L 12.3398 15.332L 8.39062 15.332L 8.39062 13.5039L 14.5781 13.5039L 14.5781 19.7617ZM 24.1289 11.2656C 23.8008 11.2109 23.4453 11.1836 23.0625 11.1836C 21.6406 11.1836 20.6758 11.7891 20.168 13L 20.168 22L 18 22L 18 9.32031L 20.1094 9.32031L 20.1445 10.7852C 20.8555 9.65234 21.8633 9.08594 23.168 9.08594C 23.5898 9.08594 23.9102 9.14062 24.1289 9.25L 24.1289 11.2656ZM 31.1602 22.2344C 29.4414 22.2344 28.043 21.6719 26.9648 20.5469C 25.8867 19.4141 25.3477 17.9023 25.3477 16.0117L 25.3477 15.6133C 25.3477 14.3555 25.5859 13.2344 26.0625 12.25C 26.5469 11.2578 27.2188 10.4844 28.0781 9.92969C 28.9453 9.36719 29.8828 9.08594 30.8906 9.08594C 32.5391 9.08594 33.8203 9.62891 34.7344 10.7148C 35.6484 11.8008 36.1055 13.3555 36.1055 15.3789L 36.1055 16.2812L 27.5156 16.2812C 27.5469 17.5312 27.9102 18.543 28.6055 19.3164C 29.3086 20.082 30.1992 20.4648 31.2773 20.4648C 32.043 20.4648 32.6914 20.3086 33.2227 19.9961C 33.7539 19.6836 34.2188 19.2695 34.6172 18.7539L 35.9414 19.7852C 34.8789 21.418 33.2852 22.2344 31.1602 22.2344ZM 30.8906 10.8672C 30.0156 10.8672 29.2812 11.1875 28.6875 11.8281C 28.0938 12.4609 27.7266 13.3516 27.5859 14.5L 33.9375 14.5L 33.9375 14.3359C 33.875 13.2344 33.5781 12.3828 33.0469 11.7812C 32.5156 11.1719 31.7969 10.8672 30.8906 10.8672ZM 43.8867 22.2344C 42.168 22.2344 40.7695 21.6719 39.6914 20.5469C 38.6133 19.4141 38.0742 17.9023 38.0742 16.0117L 38.0742 15.6133C 38.0742 14.3555 38.3125 13.2344 38.7891 12.25C 39.2734 11.2578 39.9453 10.4844 40.8047 9.92969C 41.6719 9.36719 42.6094 9.08594 43.6172 9.08594C 45.2656 9.08594 46.5469 9.62891 47.4609 10.7148C 48.375 11.8008 48.832 13.3555 48.832 15.3789L 48.832 16.2812L 40.2422 16.2812C 40.2734 17.5312 40.6367 18.543 41.332 19.3164C 42.0352 20.082 42.9258 20.4648 44.0039 20.4648C 44.7695 20.4648 45.418 20.3086 45.9492 19.9961C 46.4805 19.6836 46.9453 19.2695 47.3438 18.7539L 48.668 19.7852C 47.6055 21.418 46.0117 22.2344 43.8867 22.2344ZM 43.6172 10.8672C 42.7422 10.8672 42.0078 11.1875 41.4141 11.8281C 40.8203 12.4609 40.4531 13.3516 40.3125 14.5L 46.6641 14.5L 46.6641 14.3359C 46.6016 13.2344 46.3047 12.3828 45.7734 11.7812C 45.2422 11.1719 44.5234 10.8672 43.6172 10.8672ZM 53.4023 9.32031L 53.4727 10.9141C 54.4414 9.69531 55.707 9.08594 57.2695 9.08594C 59.9492 9.08594 61.3008 10.5977 61.3242 13.6211L 61.3242 22L 59.1562 22L 59.1562 13.6094C 59.1484 12.6953 58.9375 12.0195 58.5234 11.582C 58.1172 11.1445 57.4805 10.9258 56.6133 10.9258C 55.9102 10.9258 55.293 11.1133 54.7617 11.4883C 54.2305 11.8633 53.8164 12.3555 53.5195 12.9648L 53.5195 22L 51.3516 22L 51.3516 9.32031L 53.4023 9.32031ZM 70.9805 23.4648L 69.1172 23.4648L 76.2422 4.9375L 78.0938 4.9375L 70.9805 23.4648ZM 91.9336 13.5039L 96.3867 4.9375L 98.9414 4.9375L 93.0586 15.6367L 93.0586 22L 90.8086 22L 90.8086 15.6367L 84.9258 4.9375L 87.5039 4.9375L 91.9336 13.5039ZM 105.293 22.2344C 103.574 22.2344 102.176 21.6719 101.098 20.5469C 100.02 19.4141 99.4805 17.9023 99.4805 16.0117L 99.4805 15.6133C 99.4805 14.3555 99.7188 13.2344 100.195 12.25C 100.68 11.2578 101.352 10.4844 102.211 9.92969C 103.078 9.36719 104.016 9.08594 105.023 9.08594C 106.672 9.08594 107.953 9.62891 108.867 10.7148C 109.781 11.8008 110.238 13.3555 110.238 15.3789L 110.238 16.2812L 101.648 16.2812C 101.68 17.5312 102.043 18.543 102.738 19.3164C 103.441 20.082 104.332 20.4648 105.41 20.4648C 106.176 20.4648 106.824 20.3086 107.355 19.9961C 107.887 19.6836 108.352 19.2695 108.75 18.7539L 110.074 19.7852C 109.012 21.418 107.418 22.2344 105.293 22.2344ZM 105.023 10.8672C 104.148 10.8672 103.414 11.1875 102.82 11.8281C 102.227 12.4609 101.859 13.3516 101.719 14.5L 108.07 14.5L 108.07 14.3359C 108.008 13.2344 107.711 12.3828 107.18 11.7812C 106.648 11.1719 105.93 10.8672 105.023 10.8672ZM 115.113 22L 112.945 22L 112.945 4L 115.113 4L 115.113 22ZM 120.949 22L 118.781 22L 118.781 4L 120.949 4L 120.949 22ZM 123.855 15.543C 123.855 14.3008 124.098 13.1836 124.582 12.1914C 125.074 11.1992 125.754 10.4336 126.621 9.89453C 127.496 9.35547 128.492 9.08594 129.609 9.08594C 131.336 9.08594 132.73 9.68359 133.793 10.8789C 134.863 12.0742 135.398 13.6641 135.398 15.6484L 135.398 15.8008C 135.398 17.0352 135.16 18.1445 134.684 19.1289C 134.215 20.1055 133.539 20.8672 132.656 21.4141C 131.781 21.9609 130.773 22.2344 129.633 22.2344C 127.914 22.2344 126.52 21.6367 125.449 20.4414C 124.387 19.2461 123.855 17.6641 123.855 15.6953L 123.855 15.543ZM 126.035 15.8008C 126.035 17.207 126.359 18.3359 127.008 19.1875C 127.664 20.0391 128.539 20.4648 129.633 20.4648C 130.734 20.4648 131.609 20.0352 132.258 19.1758C 132.906 18.3086 133.23 17.0977 133.23 15.543C 133.23 14.1523 132.898 13.0273 132.234 12.168C 131.578 11.3008 130.703 10.8672 129.609 10.8672C 128.539 10.8672 127.676 11.293 127.02 12.1445C 126.363 12.9961 126.035 14.2148 126.035 15.8008ZM 149.344 19.0117L 151.781 9.32031L 153.949 9.32031L 150.258 22L 148.5 22L 145.418 12.3906L 142.418 22L 140.66 22L 136.98 9.32031L 139.137 9.32031L 141.633 18.8125L 144.586 9.32031L 146.332 9.32031L 149.344 19.0117ZM 162.551 23.4648L 160.688 23.4648L 167.812 4.9375L 169.664 4.9375L 162.551 23.4648ZM 184.559 15.0977L 180.551 15.0977L 180.551 22L 178.289 22L 178.289 4.9375L 183.938 4.9375C 185.859 4.9375 187.336 5.375 188.367 6.25C 189.406 7.125 189.926 8.39844 189.926 10.0703C 189.926 11.1328 189.637 12.0586 189.059 12.8477C 188.488 13.6367 187.691 14.2266 186.668 14.6172L 190.676 21.8594L 190.676 22L 188.262 22L 184.559 15.0977ZM 180.551 13.2578L 184.008 13.2578C 185.125 13.2578 186.012 12.9688 186.668 12.3906C 187.332 11.8125 187.664 11.0391 187.664 10.0703C 187.664 9.01562 187.348 8.20703 186.715 7.64453C 186.09 7.08203 185.184 6.79688 183.996 6.78906L 180.551 6.78906L 180.551 13.2578ZM 198.012 22.2344C 196.293 22.2344 194.895 21.6719 193.816 20.5469C 192.738 19.4141 192.199 17.9023 192.199 16.0117L 192.199 15.6133C 192.199 14.3555 192.438 13.2344 192.914 12.25C 193.398 11.2578 194.07 10.4844 194.93 9.92969C 195.797 9.36719 196.734 9.08594 197.742 9.08594C 199.391 9.08594 200.672 9.62891 201.586 10.7148C 202.5 11.8008 202.957 13.3555 202.957 15.3789L 202.957 16.2812L 194.367 16.2812C 194.398 17.5312 194.762 18.543 195.457 19.3164C 196.16 20.082 197.051 20.4648 198.129 20.4648C 198.895 20.4648 199.543 20.3086 200.074 19.9961C 200.605 19.6836 201.07 19.2695 201.469 18.7539L 202.793 19.7852C 201.73 21.418 200.137 22.2344 198.012 22.2344ZM 197.742 10.8672C 196.867 10.8672 196.133 11.1875 195.539 11.8281C 194.945 12.4609 194.578 13.3516 194.438 14.5L 200.789 14.5L 200.789 14.3359C 200.727 13.2344 200.43 12.3828 199.898 11.7812C 199.367 11.1719 198.648 10.8672 197.742 10.8672ZM 204.949 15.5547C 204.949 13.6094 205.41 12.0469 206.332 10.8672C 207.254 9.67969 208.461 9.08594 209.953 9.08594C 211.438 9.08594 212.613 9.59375 213.48 10.6094L 213.48 4L 215.648 4L 215.648 22L 213.656 22L 213.551 20.6406C 212.684 21.7031 211.477 22.2344 209.93 22.2344C 208.461 22.2344 207.262 21.6328 206.332 20.4297C 205.41 19.2266 204.949 17.6562 204.949 15.7188L 204.949 15.5547ZM 207.117 15.8008C 207.117 17.2383 207.414 18.3633 208.008 19.1758C 208.602 19.9883 209.422 20.3945 210.469 20.3945C 211.844 20.3945 212.848 19.7773 213.48 18.543L 213.48 12.7188C 212.832 11.5234 211.836 10.9258 210.492 10.9258C 209.43 10.9258 208.602 11.3359 208.008 12.1562C 207.414 12.9766 207.117 14.1914 207.117 15.8008Z"/>
<path id="path3_fill" d="M 8.23828 15.0977L 4.23047 15.0977L 4.23047 22L 1.96875 22L 1.96875 4.9375L 7.61719 4.9375C 9.53906 4.9375 11.0156 5.375 12.0469 6.25C 13.0859 7.125 13.6055 8.39844 13.6055 10.0703C 13.6055 11.1328 13.3164 12.0586 12.7383 12.8477C 12.168 13.6367 11.3711 14.2266 10.3477 14.6172L 14.3555 21.8594L 14.3555 22L 11.9414 22L 8.23828 15.0977ZM 4.23047 13.2578L 7.6875 13.2578C 8.80469 13.2578 9.69141 12.9688 10.3477 12.3906C 11.0117 11.8125 11.3438 11.0391 11.3438 10.0703C 11.3438 9.01562 11.0273 8.20703 10.3945 7.64453C 9.76953 7.08203 8.86328 6.79688 7.67578 6.78906L 4.23047 6.78906L 4.23047 13.2578ZM 21.6914 22.2344C 19.9727 22.2344 18.5742 21.6719 17.4961 20.5469C 16.418 19.4141 15.8789 17.9023 15.8789 16.0117L 15.8789 15.6133C 15.8789 14.3555 16.1172 13.2344 16.5938 12.25C 17.0781 11.2578 17.75 10.4844 18.6094 9.92969C 19.4766 9.36719 20.4141 9.08594 21.4219 9.08594C 23.0703 9.08594 24.3516 9.62891 25.2656 10.7148C 26.1797 11.8008 26.6367 13.3555 26.6367 15.3789L 26.6367 16.2812L 18.0469 16.2812C 18.0781 17.5312 18.4414 18.543 19.1367 19.3164C 19.8398 20.082 20.7305 20.4648 21.8086 20.4648C 22.5742 20.4648 23.2227 20.3086 23.7539 19.9961C 24.2852 19.6836 24.75 19.2695 25.1484 18.7539L 26.4727 19.7852C 25.4102 21.418 23.8164 22.2344 21.6914 22.2344ZM 21.4219 10.8672C 20.5469 10.8672 19.8125 11.1875 19.2188 11.8281C 18.625 12.4609 18.2578 13.3516 18.1172 14.5L 24.4688 14.5L 24.4688 14.3359C 24.4062 13.2344 24.1094 12.3828 23.5781 11.7812C 23.0469 11.1719 22.3281 10.8672 21.4219 10.8672ZM 36.9844 22C 36.8594 21.75 36.7578 21.3047 36.6797 20.6641C 35.6719 21.7109 34.4688 22.2344 33.0703 22.2344C 31.8203 22.2344 30.793 21.8828 29.9883 21.1797C 29.1914 20.4688 28.793 19.5703 28.793 18.4844C 28.793 17.1641 29.293 16.1406 30.293 15.4141C 31.3008 14.6797 32.7148 14.3125 34.5352 14.3125L 36.6445 14.3125L 36.6445 13.3164C 36.6445 12.5586 36.418 11.957 35.9648 11.5117C 35.5117 11.0586 34.8438 10.832 33.9609 10.832C 33.1875 10.832 32.5391 11.0273 32.0156 11.418C 31.4922 11.8086 31.2305 12.2812 31.2305 12.8359L 29.0508 12.8359C 29.0508 12.2031 29.2734 11.5938 29.7188 11.0078C 30.1719 10.4141 30.7812 9.94531 31.5469 9.60156C 32.3203 9.25781 33.168 9.08594 34.0898 9.08594C 35.5508 9.08594 36.6953 9.45312 37.5234 10.1875C 38.3516 10.9141 38.7812 11.918 38.8125 13.1992L 38.8125 19.0352C 38.8125 20.1992 38.9609 21.125 39.2578 21.8125L 39.2578 22L 36.9844 22ZM 33.3867 20.3477C 34.0664 20.3477 34.7109 20.1719 35.3203 19.8203C 35.9297 19.4688 36.3711 19.0117 36.6445 18.4492L 36.6445 15.8477L 34.9453 15.8477C 32.2891 15.8477 30.9609 16.625 30.9609 18.1797C 30.9609 18.8594 31.1875 19.3906 31.6406 19.7734C 32.0938 20.1562 32.6758 20.3477 33.3867 20.3477ZM 41.6836 15.5547C 41.6836 13.6094 42.1445 12.0469 43.0664 10.8672C 43.9883 9.67969 45.1953 9.08594 46.6875 9.08594C 48.1719 9.08594 49.3477 9.59375 50.2148 10.6094L 50.2148 4L 52.3828 4L 52.3828 22L 50.3906 22L 50.2852 20.6406C 49.418 21.7031 48.2109 22.2344 46.6641 22.2344C 45.1953 22.2344 43.9961 21.6328 43.0664 20.4297C 42.1445 19.2266 41.6836 17.6562 41.6836 15.7188L 41.6836 15.5547ZM 43.8516 15.8008C 43.8516 17.2383 44.1484 18.3633 44.7422 19.1758C 45.3359 19.9883 46.1562 20.3945 47.2031 20.3945C 48.5781 20.3945 49.582 19.7773 50.2148 18.543L 50.2148 12.7188C 49.5664 11.5234 48.5703 10.9258 47.2266 10.9258C 46.1641 10.9258 45.3359 11.3359 44.7422 12.1562C 44.1484 12.9766 43.8516 14.1914 43.8516 15.8008ZM 59.9062 18.8242L 62.8594 9.32031L 65.1797 9.32031L 60.082 23.957C 59.293 26.0664 58.0391 27.1211 56.3203 27.1211L 55.9102 27.0859L 55.1016 26.9336L 55.1016 25.1758L 55.6875 25.2227C 56.4219 25.2227 56.9922 25.0742 57.3984 24.7773C 57.8125 24.4805 58.1523 23.9375 58.418 23.1484L 58.8984 21.8594L 54.375 9.32031L 56.7422 9.32031L 59.9062 18.8242ZM 73.418 22L 73.418 4.9375L 78.2344 4.9375C 79.7188 4.9375 81.0312 5.26562 82.1719 5.92188C 83.3125 6.57812 84.1914 7.51172 84.8086 8.72266C 85.4336 9.93359 85.75 11.3242 85.7578 12.8945L 85.7578 13.9844C 85.7578 15.5938 85.4453 17.0039 84.8203 18.2148C 84.2031 19.4258 83.3164 20.3555 82.1602 21.0039C 81.0117 21.6523 79.6719 21.9844 78.1406 22L 73.418 22ZM 75.668 6.78906L 75.668 20.1602L 78.0352 20.1602C 79.7695 20.1602 81.1172 19.6211 82.0781 18.543C 83.0469 17.4648 83.5312 15.9297 83.5312 13.9375L 83.5312 12.9414C 83.5312 11.0039 83.0742 9.5 82.1602 8.42969C 81.2539 7.35156 79.9648 6.80469 78.293 6.78906L 75.668 6.78906ZM 96.6562 22C 96.5312 21.75 96.4297 21.3047 96.3516 20.6641C 95.3438 21.7109 94.1406 22.2344 92.7422 22.2344C 91.4922 22.2344 90.4648 21.8828 89.6602 21.1797C 88.8633 20.4688 88.4648 19.5703 88.4648 18.4844C 88.4648 17.1641 88.9648 16.1406 89.9648 15.4141C 90.9727 14.6797 92.3867 14.3125 94.207 14.3125L 96.3164 14.3125L 96.3164 13.3164C 96.3164 12.5586 96.0898 11.957 95.6367 11.5117C 95.1836 11.0586 94.5156 10.832 93.6328 10.832C 92.8594 10.832 92.2109 11.0273 91.6875 11.418C 91.1641 11.8086 90.9023 12.2812 90.9023 12.8359L 88.7227 12.8359C 88.7227 12.2031 88.9453 11.5938 89.3906 11.0078C 89.8438 10.4141 90.4531 9.94531 91.2188 9.60156C 91.9922 9.25781 92.8398 9.08594 93.7617 9.08594C 95.2227 9.08594 96.3672 9.45312 97.1953 10.1875C 98.0234 10.9141 98.4531 11.918 98.4844 13.1992L 98.4844 19.0352C 98.4844 20.1992 98.6328 21.125 98.9297 21.8125L 98.9297 22L 96.6562 22ZM 93.0586 20.3477C 93.7383 20.3477 94.3828 20.1719 94.9922 19.8203C 95.6016 19.4688 96.043 19.0117 96.3164 18.4492L 96.3164 15.8477L 94.6172 15.8477C 91.9609 15.8477 90.6328 16.625 90.6328 18.1797C 90.6328 18.8594 90.8594 19.3906 91.3125 19.7734C 91.7656 20.1562 92.3477 20.3477 93.0586 20.3477ZM 105.844 18.8242L 108.797 9.32031L 111.117 9.32031L 106.02 23.957C 105.23 26.0664 103.977 27.1211 102.258 27.1211L 101.848 27.0859L 101.039 26.9336L 101.039 25.1758L 101.625 25.2227C 102.359 25.2227 102.93 25.0742 103.336 24.7773C 103.75 24.4805 104.09 23.9375 104.355 23.1484L 104.836 21.8594L 100.312 9.32031L 102.68 9.32031L 105.844 18.8242ZM 132.48 14.0195C 132.48 15.6914 132.199 17.1523 131.637 18.4023C 131.074 19.6445 130.277 20.5938 129.246 21.25C 128.215 21.9062 127.012 22.2344 125.637 22.2344C 124.293 22.2344 123.102 21.9062 122.062 21.25C 121.023 20.5859 120.215 19.6445 119.637 18.4258C 119.066 17.1992 118.773 15.7812 118.758 14.1719L 118.758 12.9414C 118.758 11.3008 119.043 9.85156 119.613 8.59375C 120.184 7.33594 120.988 6.375 122.027 5.71094C 123.074 5.03906 124.27 4.70312 125.613 4.70312C 126.98 4.70312 128.184 5.03516 129.223 5.69922C 130.27 6.35547 131.074 7.3125 131.637 8.57031C 132.199 9.82031 132.48 11.2773 132.48 12.9414L 132.48 14.0195ZM 130.242 12.918C 130.242 10.8945 129.836 9.34375 129.023 8.26562C 128.211 7.17969 127.074 6.63672 125.613 6.63672C 124.191 6.63672 123.07 7.17969 122.25 8.26562C 121.438 9.34375 121.02 10.8438 120.996 12.7656L 120.996 14.0195C 120.996 15.9805 121.406 17.5234 122.227 18.6484C 123.055 19.7656 124.191 20.3242 125.637 20.3242C 127.09 20.3242 128.215 19.7969 129.012 18.7422C 129.809 17.6797 130.219 16.1602 130.242 14.1836L 130.242 12.918ZM 137.566 9.32031L 137.637 10.9141C 138.605 9.69531 139.871 9.08594 141.434 9.08594C 144.113 9.08594 145.465 10.5977 145.488 13.6211L 145.488 22L 143.32 22L 143.32 13.6094C 143.312 12.6953 143.102 12.0195 142.688 11.582C 142.281 11.1445 141.645 10.9258 140.777 10.9258C 140.074 10.9258 139.457 11.1133 138.926 11.4883C 138.395 11.8633 137.98 12.3555 137.684 12.9648L 137.684 22L 135.516 22L 135.516 9.32031L 137.566 9.32031ZM 154.02 22.2344C 152.301 22.2344 150.902 21.6719 149.824 20.5469C 148.746 19.4141 148.207 17.9023 148.207 16.0117L 148.207 15.6133C 148.207 14.3555 148.445 13.2344 148.922 12.25C 149.406 11.2578 150.078 10.4844 150.938 9.92969C 151.805 9.36719 152.742 9.08594 153.75 9.08594C 155.398 9.08594 156.68 9.62891 157.594 10.7148C 158.508 11.8008 158.965 13.3555 158.965 15.3789L 158.965 16.2812L 150.375 16.2812C 150.406 17.5312 150.77 18.543 151.465 19.3164C 152.168 20.082 153.059 20.4648 154.137 20.4648C 154.902 20.4648 155.551 20.3086 156.082 19.9961C 156.613 19.6836 157.078 19.2695 157.477 18.7539L 158.801 19.7852C 157.738 21.418 156.145 22.2344 154.02 22.2344ZM 153.75 10.8672C 152.875 10.8672 152.141 11.1875 151.547 11.8281C 150.953 12.4609 150.586 13.3516 150.445 14.5L 156.797 14.5L 156.797 14.3359C 156.734 13.2344 156.438 12.3828 155.906 11.7812C 155.375 11.1719 154.656 10.8672 153.75 10.8672Z"/>
</defs>
</svg>
